<svg width="16" height="12.2" viewBox="0 0 1431 1090" fill="none" xmlns="http://www.w3.org/2000/svg">
<path d="M819.28 799.594L979.52 639.364L1429.88 1089.7L1109.7 1090L819.28 799.594Z" fill="#02539A"/>
<path d="M819.28 799.594L979.52 639.364L1429.88 1089.7L1109.7 1090L819.28 799.594Z" fill="white" fill-opacity="0.1"/>
<path d="M979.52 959.623L819.28 799.393L1109.7 508.987H1430.18L979.52 959.623Z" fill="#45D1FD" fill-opacity="0.85"/>
<path d="M715.24 715.01L715.145 394.635L1109.81 1.73245e-05L1430.29 0L715.24 715.01Z" fill="#45D1FD"/>
<path d="M611.009 799.594L450.769 639.364L0.408325 1089.7L320.587 1090L611.009 799.594Z" fill="#02539A"/>
<path d="M611.009 799.594L450.769 639.364L0.408325 1089.7L320.587 1090L611.009 799.594Z" fill="white" fill-opacity="0.1"/>
<path d="M450.769 959.623L611.009 799.393L320.587 508.987H0.107849L450.769 959.623Z" fill="#45D1FD" fill-opacity="0.85"/>
<path d="M715.05 715.01L715.149 394.639L320.479 1.73245e-05L0 0L715.05 715.01Z" fill="#45D1FD"/>
<path d="M1139.88 800L1155.07 815.189L980 959.879L1139.88 800Z" fill="#02539A"/>
<path d="M275 815.19L450.069 959.879L290.189 800L275 815.19Z" fill="#02539A"/>
</svg>
